<?xml version="1.0" standalone="no"?>
<!DOCTYPE svg PUBLIC "-//W3C//DTD SVG 20010904//EN"
 "http://www.w3.org/TR/2001/REC-SVG-20010904/DTD/svg10.dtd">
<svg version="1.0" xmlns="http://www.w3.org/2000/svg"
 width="250.000000pt" height="150.000000pt" viewBox="0 0 250.000000 150.000000"
 preserveAspectRatio="xMidYMid meet">

<g transform="translate(0.000000,150.000000) scale(0.100000,-0.100000)"
fill="#000000" stroke="none">
<path d="M330 1181 c96 -49 179 -86 184 -83 5 3 -48 34 -117 69 -70 35 -127
65 -127 66 0 2 72 -8 160 -23 88 -15 160 -24 160 -19 0 4 -10 9 -22 12 -28 7
-397 67 -406 66 -4 0 72 -40 168 -88z"/>
<path d="M773 1143 c-45 -4 -60 -23 -19 -23 38 0 86 12 86 21 0 5 -6 8 -12 7
-7 -1 -32 -3 -55 -5z"/>
<path d="M294 319 c-10 -17 13 -36 27 -22 12 12 4 33 -11 33 -5 0 -12 -5 -16
-11z"/>
<path d="M637 323 c-4 -3 -7 -60 -7 -125 0 -111 1 -118 20 -118 18 0 20 7 20
64 0 61 1 64 30 76 46 19 60 1 60 -76 0 -50 3 -64 15 -64 12 0 15 15 15 75 0
71 -2 76 -25 87 -21 9 -32 8 -60 -5 l-35 -17 0 55 c0 39 -4 55 -13 55 -8 0
-17 -3 -20 -7z"/>
<path d="M1037 324 c-14 -14 -7 -35 11 -32 9 2 17 10 17 17 0 16 -18 25 -28
15z"/>
<path d="M1823 323 c-10 -3 -13 -38 -13 -124 0 -112 1 -119 20 -119 19 0 20 7
20 125 0 69 -3 125 -7 124 -5 0 -14 -3 -20 -6z"/>
<path d="M2461 320 c-16 -9 -6 -30 15 -30 15 0 20 25 6 34 -4 2 -14 1 -21 -4z"/>
<path d="M887 293 c-4 -3 -7 -17 -7 -29 0 -13 -7 -24 -17 -27 -17 -4 -17 -5 0
-6 14 -1 17 -11 17 -60 0 -33 3 -66 6 -75 7 -18 50 -21 74 -6 12 8 9 10 -12
10 -28 0 -28 1 -28 64 0 59 2 65 23 69 l22 4 -22 2 c-19 1 -23 7 -23 31 0 28
-17 40 -33 23z"/>
<path d="M0 185 c0 -63 4 -105 10 -105 6 0 10 35 10 86 l0 86 94 -86 c51 -47
96 -86 100 -86 3 0 6 47 6 105 0 121 -18 144 -22 28 l-3 -76 -81 76 c-45 43
-89 77 -98 77 -14 0 -16 -15 -16 -105z"/>
<path d="M303 243 c-9 -3 -13 -30 -13 -84 0 -72 2 -79 20 -79 18 0 20 7 20 85
0 47 -3 85 -7 84 -5 0 -14 -3 -20 -6z"/>
<path d="M428 235 c-39 -22 -46 -54 -18 -77 l23 -19 -22 -15 c-18 -13 -20 -18
-9 -31 10 -12 9 -17 -5 -24 -27 -16 -21 -48 11 -56 72 -20 173 3 180 40 6 31
-17 47 -67 47 -59 0 -93 9 -88 24 2 6 17 10 33 9 27 -2 27 -2 6 7 -54 23 -49
105 6 98 37 -4 57 -44 36 -75 -13 -20 -13 -23 1 -23 25 0 57 39 50 61 -4 13
-2 19 9 19 9 0 16 5 16 10 0 6 -11 10 -24 10 -13 0 -43 2 -67 5 -29 4 -53 0
-71 -10z m126 -161 c29 -11 17 -33 -25 -44 -61 -17 -125 4 -112 36 5 15 105
20 137 8z"/>
<path d="M1043 243 c-9 -3 -13 -30 -13 -84 0 -72 2 -79 20 -79 18 0 20 7 20
79 0 80 -4 92 -27 84z"/>
<path d="M1153 243 c-9 -3 -13 -30 -13 -84 0 -72 2 -79 20 -79 18 0 20 7 20
64 0 61 1 64 30 76 46 19 60 1 60 -76 0 -57 2 -64 20 -64 18 0 20 7 20 65 0
52 -4 69 -20 85 -24 24 -30 24 -75 6 -31 -13 -35 -13 -35 0 0 14 -6 16 -27 7z"/>
<path d="M1398 235 c-33 -19 -39 -67 -10 -85 16 -10 16 -10 0 -20 -20 -12 -24
-40 -6 -40 6 0 1 -11 -12 -25 -22 -24 -23 -27 -7 -42 12 -12 34 -17 81 -17 74
0 116 21 116 58 0 27 -16 36 -68 36 -52 0 -82 10 -82 26 0 10 8 13 28 9 26 -5
26 -5 4 6 -26 14 -39 55 -25 78 16 25 49 25 67 -1 20 -28 20 -42 0 -62 -21
-22 4 -22 35 0 16 12 22 23 18 40 -3 16 0 24 9 24 8 0 14 5 14 10 0 6 -11 10
-24 10 -13 0 -43 2 -67 5 -30 4 -53 0 -71 -10z m136 -168 c17 -12 17 -14 1
-27 -21 -17 -120 -19 -136 -3 -6 6 -9 19 -6 27 8 20 115 22 141 3z"/>
<path d="M1631 237 c-14 -6 -26 -18 -29 -24 -6 -20 22 -15 41 7 20 24 40 26
57 5 19 -23 8 -36 -44 -54 -57 -18 -77 -42 -60 -69 13 -20 65 -28 93 -13 13 7
22 8 26 1 3 -5 14 -10 23 -10 15 0 17 10 14 70 -3 58 -7 73 -25 85 -26 18 -63
19 -96 2z m79 -97 c0 -23 -5 -31 -25 -36 -52 -13 -75 21 -33 50 37 26 58 21
58 -14z"/>
<path d="M1964 241 c-85 -37 -59 -161 33 -161 40 0 88 23 97 45 5 13 0 12 -20
-4 -15 -12 -40 -21 -55 -21 -34 0 -69 31 -69 60 0 18 7 20 70 20 52 0 70 3 70
13 0 37 -81 67 -126 48z m50 -7 c9 -4 21 -15 27 -25 9 -17 6 -19 -41 -19 -53
0 -68 18 -32 39 20 12 25 13 46 5z"/>
<path d="M2271 237 c-14 -6 -26 -18 -29 -24 -6 -20 22 -15 41 7 20 24 40 26
57 5 19 -23 8 -36 -44 -54 -57 -18 -77 -42 -60 -69 13 -21 70 -28 90 -11 11 9
18 9 26 1 28 -28 38 -13 38 53 0 52 -4 69 -20 85 -23 23 -63 26 -99 7z m79
-97 c0 -23 -5 -31 -25 -36 -52 -13 -75 21 -33 50 37 26 58 21 58 -14z"/>
<path d="M2467 243 c-4 -3 -7 -42 -7 -85 0 -63 3 -78 15 -78 12 0 15 16 15 85
0 78 -5 96 -23 78z"/>
<path d="M2145 100 c-3 -6 1 -13 10 -16 19 -8 30 0 20 15 -8 14 -22 14 -30 1z"/>
</g>
</svg>
